<svg xmlns="http://www.w3.org/2000/svg" xmlns:xlink="http://www.w3.org/1999/xlink" xmlns:fi="http://pattern.flaticon.com/" x="0" y="0" width="1800" height="900" viewBox="0 0 1800 900"><rect x="0px" y="0px" width="100%" height="100%" opacity="1" fill="#ffffff"/><defs><g transform="matrix(0.13671875 0 0 0.13671875 315 315)" id="L1_69"><g><path d="m160 10h-130c-11 0-20 9-20 20v20h492v-20c0-11-9-20-20-20zm0 0" fill="#b3b3b3"/><path d="m502 50h-492v50.003906h80c11 0 20-9 20-20h392zm0 0" fill="#ffcf33"/><path d="m502 80.003906h-392c0 11-8.996094 20-20 20h-80v219.996094h196c0 11 9 20 20 20h60c11 0 20-9 20-20h196zm0 0" fill="#f9f9f9"/><path d="m206 320h-196v30c0 11 9 20 20 20h452c11 0 20-9 20-20v-30h-196c0 11-9 20-20 20h-60c-11 0-20-9-20-20zm0 0" fill="#b3b3b3"/><path d="m216 370-20 80h120l-20-80zm0 0" fill="#b3b3b3"/><path d="m356.003906 320v-239.996094h-200.007812v239.996094h50.003906c0 11 9 20 20 20h60c11 0 20-9 20-20zm0 0" fill="#00c9af"/></g><path d="m89.042969 20h.269531c5.523438 0 10-4.476562 10-10s-4.476562-10-10-10h-.269531c-5.523438 0-10 4.476562-10 10s4.476562 10 10 10zm0 0"/><path d="m512 30c0-16.542969-13.457031-30-30-30h-353.035156c-5.523438 0-10 4.476562-10 10s4.476562 10 10 10h353.035156c5.515625 0 10 4.484375 10 10v10h-472v-10c0-5.515625 4.484375-10 10-10h30c5.523438 0 10-4.476562 10-10s-4.476562-10-10-10h-30c-16.542969 0-30 13.457031-30 30v320c0 16.542969 13.457031 30 30 30h173.191406l-15 60h-12.191406c-5.523438 0-10 4.476562-10 10s4.476562 10 10 10h160c5.523438 0 10-4.476562 10-10s-4.476562-10-10-10h-12.191406l-15-60h73.191406c5.523438 0 10-4.476562 10-10s-4.476562-10-10-10h-352c-5.515625 0-10-4.484375-10-10v-20h177.714844c4.125 11.640625 15.25 20 28.285156 20h60c13.039062 0 24.160156-8.359375 28.285156-20h177.714844v20c0 5.515625-4.484375 10-10 10h-31.035156c-5.523438 0-10 4.476562-10 10s4.476562 10 10 10h31.035156c16.542969 0 30-13.457031 30-30zm-223.808594 350 15 60h-94.382812l15-60zm203.808594-320v10.003906h-382c-5.523438 0-10 4.476563-10 10 0 5.511719-4.484375 10-10 10h-70v-30.003906zm-472 50.003906h70c13.039062 0 24.160156-8.359375 28.285156-20h27.710938v219.996094h-125.996094zm286 199.996094c-5.523438 0-10 4.476562-10 10 0 5.511719-4.484375 10-10 10h-60c-5.515625 0-10-4.488281-10-10 0-5.523438-4.476562-10-10-10h-40.003906v-219.996094h180.007812v219.996094zm60.003906 0v-219.996094h125.996094v219.996094zm0 0"/><path d="m221 230c-5.507812 0-10 4.492188-10 10s4.492188 10 10 10 10-4.492188 10-10-4.492188-10-10-10zm0 0"/><path d="m284.640625 176.363281c-16.289063-16.289062-38.789063-26.363281-63.640625-26.363281-5.523438 0-10 4.476562-10 10s4.476562 10 10 10c19.332031 0 36.832031 7.835938 49.496094 20.503906 12.667968 12.667969 20.503906 30.167969 20.503906 49.496094 0 5.523438 4.476562 10 10 10s10-4.476562 10-10c0-24.851562-10.074219-47.351562-26.359375-63.636719zm0 0"/><path d="m221 190c-5.523438 0-10 4.476562-10 10s4.476562 10 10 10c8.285156 0 15.785156 3.359375 21.214844 8.785156 5.425781 5.429688 8.785156 12.929688 8.785156 21.214844 0 5.523438 4.476562 10 10 10s10-4.476562 10-10c0-13.804688-5.597656-26.304688-14.644531-35.351562-9.050781-9.050782-21.550781-14.648438-35.355469-14.648438zm0 0"/><path d="m422.234375 360h-.269531c-5.523438 0-10 4.476562-10 10s4.476562 10 10 10h.269531c5.523437 0 10-4.476562 10-10s-4.476563-10-10-10zm0 0"/></g><g transform="matrix(0.09765662997961044 0 0 0.09765662997961044 150 325)" id="L1_70"><g><path d="m10.5 10.007812h233.988281v149.734376h-233.988281zm0 0" fill="#00c9af"/><path d="m10.5 159.742188h233.988281v149.738281h-233.988281zm0 0" fill="#b2f6ff"/><path d="m244.488281 309.480469h-233.988281v149.738281l52-.003906h52.003906l129.984375.003906zm0 0" fill="#00c9af"/><path d="m244.488281 309.480469.003907 149.738281h45.332031v-449.210938h-45.332031l-.003907 149.734376zm0 0" fill="#ffa754"/><path d="m289.824219 309.480469v149.738281h24.878906c19.683594 0 35.789063-16.105469 35.789063-35.792969v-113.945312zm0 0" fill="#00c9af"/><path d="m289.824219 159.742188h60.667969v149.738281h-60.667969zm0 0" fill="#b2f6ff"/><path d="m289.824219 159.742188h60.667969v-113.945313c0-19.6875-16.105469-35.789063-35.785157-35.789063h-24.882812zm0 0" fill="#00c9af"/><path d="m101.167969 459.214844h-45.332031v42.785156l22.664062-10.695312 22.667969 10.695312zm0 0" fill="#ffcf33"/><path d="m390.492188 72.125h60v237.355469h-60zm0 0" fill="#b2f6ff"/><path d="m390.492188 72.125h60l-30-62.125zm0 0" fill="#e7d7b7"/><path d="m390.492188 309.480469h60v149.738281h-60zm0 0" fill="#00c9af"/></g><path d="m70.265625 20.007812h.269531c5.519532 0 10-4.476562 10-10 0-5.523437-4.480468-9.9999995-10-9.9999995h-.269531c-5.523437 0-10 4.4765625-10 9.9999995 0 5.523438 4.476563 10 10 10zm0 0"/><path d="m314.707031.0078125h-204.207031c-5.523438 0-10 4.4765625-10 9.9999995 0 5.523438 4.476562 10 10 10h123.992188v129.734376h-213.992188v-129.734376h21.035156c5.519532 0 9.996094-4.476562 9.996094-10 0-5.523437-4.476562-9.9999995-9.996094-9.9999995h-31.035156c-5.523438 0-10 4.4765625-10 9.9999995v149.714844.019532.019531 149.699219.019531.019531 149.714844c0 5.523437 4.476562 10 10 10h35.335938v32.785156c0 3.421875 1.75 6.609375 4.644531 8.445312 1.625 1.03125 3.484375 1.550782 5.355469 1.550782 1.453124 0 2.910156-.316406 4.265624-.957032l18.398438-8.679687 18.398438 8.679687c3.101562 1.464844 6.730468 1.238282 9.621093-.597656 2.894531-1.832031 4.648438-5.019531 4.648438-8.445312v-32.78125h203.535156c25.25 0 45.789063-20.542969 45.789063-45.789063v-377.628906c.003906-25.25-20.539063-45.7890625-45.785157-45.7890625zm-14.882812 169.7343755h40.671875v129.738281h-40.671875zm40.671875-123.945313v103.945313h-40.671875v-129.734376h14.882812c14.21875 0 25.789063 11.566407 25.789063 25.789063zm-106.003906 123.945313v129.738281h-213.992188v-129.738281zm-213.992188 149.738281h213.992188v129.738281h-213.992188zm70.667969 166.742187-8.398438-3.960937c-2.703125-1.277344-5.832031-1.277344-8.535156 0l-8.398437 3.960937v-17.007812h25.332031zm223.539062-37.003906h-14.882812v-39.738281c0-5.523438-4.476563-10-10-10-5.523438 0-10 4.476562-10 10v39.738281h-25.332031v-429.210938h25.332031v139.703126c0 .011718-.003907.023437-.003907.03125 0 .011718.003907.023437.003907.035156v149.699218.003907.003906 31.03125c0 5.523437 4.476562 10 10 10 5.519531 0 10-4.476563 10-10v-21.035156h40.671875v103.945312c0 14.222657-11.570313 25.792969-25.789063 25.792969zm0 0"/><path d="m460.429688 71.039062c-.007813-.085937-.027344-.167968-.039063-.253906-.035156-.273437-.078125-.546875-.136719-.8125-.023437-.097656-.050781-.195312-.074218-.289062-.066407-.253906-.136719-.503906-.21875-.75-.03125-.101563-.070313-.203125-.109376-.300782-.085937-.238281-.183593-.472656-.289062-.699218-.023438-.050782-.042969-.105469-.066406-.160156l-30-62.121094c-1.667969-3.457032-5.164063-5.652344-9.003906-5.652344-3.835938 0-7.335938 2.195312-9.003907 5.652344l-30 62.121094c-.023437.054687-.042969.109374-.066406.160156-.105469.226562-.199219.460937-.289063.699218-.039062.097657-.078124.199219-.109374.300782-.085938.246094-.15625.496094-.21875.75-.023438.09375-.050782.191406-.074219.289062-.058594.265625-.101563.539063-.136719.8125-.011719.085938-.03125.167969-.039062.253906-.039063.355469-.0625.71875-.0625 1.085938v387.09375c0 5.519531 4.476562 9.996094 10 9.996094h60c5.519531 0 10-4.476563 10-9.996094v-387.09375c0-.367188-.023438-.730469-.0625-1.085938zm-59.9375 11.085938h40v217.355469h-40zm20-49.128906 14.066406 29.128906h-28.132813zm-20 416.222656v-129.738281h40v129.738281zm0 0"/><path d="m289.820312 359.246094c-5.519531 0-10 4.476562-10 10v.269531c0 5.523437 4.480469 10 10 10 5.523438 0 10-4.476563 10-10v-.269531c0-5.523438-4.476562-10-10-10zm0 0"/></g><g transform="matrix(0.09765605628490448 0 0 0.09765605628490448 62.5 150)" id="L1_71"><g><path d="m55.851562 344.734375h314.378907v-334.734375h-314.378907c-25.089843 0-45.621093 20.738281-45.621093 46.082031v334.574219c.089843-25.273438 20.582031-45.921875 45.621093-45.921875zm0 0" fill="#ffa754"/><path d="m148.023438 390.820312h-92.175782l.003906 46.082032-.003906 65.097656 46.089844-46.085938 46.085938 46.085938zm0 0" fill="#ffcf33"/><path d="m148.023438 390.820312v46.082032h222.207031c-12.722657 0-23.039063-20.632813-23.039063-46.082032 0-25.453124 10.316406-46.085937 23.039063-46.085937h-314.378907c-25.34375 0-46.082031 20.738281-46.082031 46.085937l.132813 3.5v.035157c1.824218 23.710937 21.800781 42.546875 45.949218 42.546875l-.003906-46.082032zm0 0" fill="#f9f9f9"/><path d="m312.8125 177.367188c0 55.226562-44.773438 100-100 100-55.230469 0-100-44.773438-100-100 0-55.230469 44.769531-100 100-100 55.226562 0 100 44.769531 100 100zm0 0" fill="#00c9af"/></g><path d="m115.386719 20h.269531c5.519531 0 10-4.476562 10-10s-4.480469-10-10-10h-.269531c-5.523438 0-10 4.476562-10 10s4.476562 10 10 10zm0 0"/><path d="m380 10c0-5.523438-4.476562-10-10-10h-214.378906c-5.523438 0-10 4.476562-10 10s4.476562 10 10 10h204.378906v314.734375h-294.378906v-23.542969c0-5.523437-4.476563-10-10-10-5.523438 0-10 4.476563-10 10v24.46875c-9.628906 1.769532-18.398438 6.039063-25.621094 12.125v-291.703125c0-16.378906 10.832031-30.234375 25.621094-34.625v155.910157c0 5.523437 4.476562 10 10 10 5.523437 0 10-4.476563 10-10v-157.367188h21.035156c5.519531 0 10-4.476562 10-10s-4.480469-10-10-10h-31.035156c-30.667969 0-55.621094 25.160156-55.621094 56.082031v334.738281c0 .476563.0078125.945313.0195312 1.460938.0117188.449219.03125.898438.0546876 1.394531v.058594c.0234374.460937.0546872.925781.0898432 1.382813h.015626c1.929687 25.542968 20.894531 46.347656 45.441406 50.863281v56.019531c0 4.054688 2.445312 7.707031 6.195312 9.25 3.75 1.539062 8.058594.664062 10.910156-2.214844l38.515626-38.90625 38.515624 38.90625c1.914063 1.9375 4.488282 2.964844 7.109376 2.964844 1.28125 0 2.570312-.246094 3.800781-.75 3.75-1.542969 6.195312-5.195312 6.195312-9.25v-55.09375h213.136719.007812c.3125 0 .621094-.019531.929688-.050781.085938-.007813.171875-.019531.257812-.027344.21875-.027344.4375-.0625.65625-.101563.101563-.019531.195313-.039062.292969-.058593.214844-.046875.429688-.101563.644531-.164063.082032-.023437.164063-.042968.246094-.070312.28125-.089844.558594-.191406.835938-.304688.0625-.027344.128906-.0625.195312-.09375.203125-.089844.40625-.183594.609375-.292968.105469-.054688.210938-.121094.316407-.179688.152343-.089844.304687-.179688.453124-.277344.109376-.070312.21875-.144531.328126-.222656.070312-.050781.140624-.09375.210937-.144531.058594-.042969.109375-.09375.167969-.140625.144531-.113282.285156-.226563.421875-.347656.121093-.105469.234375-.210938.347656-.320313.117187-.109375.226563-.222656.335937-.339844.121094-.125.238282-.253906.351563-.386719.09375-.109374.183594-.222656.269531-.335937.113282-.140625.222656-.285156.328125-.433594.082031-.117187.160157-.242187.238281-.363281.09375-.148438.183594-.292969.269532-.445312.078125-.140626.148437-.28125.222656-.425782.070312-.140625.140625-.277344.199219-.421875.074219-.160156.136719-.328125.203125-.492187.046875-.132813.101562-.265625.144531-.398438.058594-.175781.105469-.351562.15625-.53125.035156-.132812.074219-.269531.105469-.40625.039062-.171875.070312-.347656.101562-.523437.027344-.152344.050782-.304688.070313-.460938.019531-.160156.035156-.320312.046875-.480469.011718-.179687.023437-.355468.027344-.535156 0-.078125.011718-.148437.011718-.226562 0-.074219-.011718-.140625-.011718-.214844-.003907-.1875-.015626-.375-.027344-.5625-.011719-.148438-.023438-.292969-.042969-.4375-.019531-.175781-.050781-.351562-.082031-.53125-.023438-.148438-.050782-.300781-.085938-.449219-.039062-.164062-.082031-.324219-.125-.488281-.042968-.15625-.089844-.3125-.140625-.46875-.046875-.148438-.105469-.292969-.160156-.441406-.0625-.164063-.128906-.324219-.199219-.484375-.058594-.132813-.125-.265625-.191406-.394531-.085938-.167969-.171875-.332032-.261719-.492188-.070312-.121094-.140625-.242188-.21875-.359375-.101562-.164063-.210937-.324219-.324219-.480469-.039062-.058594-.074218-.117187-.113281-.171875-8.898437-11.929687-13.582031-25.789062-14.0625-39.324219.019531-.257812.039063-.519531.039063-.785156 0-.425781-.035156-.847656-.085938-1.261718-.058594-14.101563 4.484375-27.714844 13.644532-38.265626.023437-.027343.046874-.0625.070312-.09375.128906-.148437.246094-.304687.363281-.460937.082031-.109375.167969-.214844.246094-.328125.105469-.152344.199219-.3125.300781-.472656.074219-.121094.152344-.242188.21875-.367188.085938-.152344.160156-.3125.238282-.472656.066406-.132812.136718-.269531.195312-.40625.066406-.152344.121094-.316406.179688-.472656.054687-.148438.113281-.292969.164062-.441406.046875-.15625.085938-.3125.125-.46875.042969-.160157.089844-.316407.125-.480469.03125-.144531.050781-.296875.078125-.449219.027344-.175781.058594-.347656.078125-.523438.015625-.144531.023438-.289062.03125-.429687.011719-.191406.027344-.378906.027344-.566406 0-.042969.007812-.082031.007812-.125v-334.730469zm-243.136719 467.683594-28.515625-28.804688c-1.878906-1.898437-4.4375-2.964844-7.105468-2.964844-2.667969 0-5.230469 1.066407-7.105469 2.964844l-28.515625 28.804688v-76.863282h71.242187zm34.402344-96.863282h-115.648437c-5.523438 0-10 4.476563-10 10v34.625c-14.222657-4.222656-24.785157-17.207031-25.570313-32.765624 0-.007813 0-.011719 0-.015626-.03125-.609374-.046875-1.222656-.046875-1.839843 0-.003907 0-.003907 0-.007813 0-19.894531 15.980469-36.082031 35.621094-36.082031h296.007812c-3.902344 8.164063-6.3125 16.996094-7.234375 26.082031h-22.070312c-5.523438 0-10 4.480469-10 10 0 5.523438 4.476562 10 10 10h22.414062c1.1875 8.863282 3.734375 17.679688 7.671875 26.085938h-195.546875v-26.082032h14.402344c5.523437 0 10-4.476562 10-10 0-5.523437-4.476563-10-10-10zm0 0"/><path d="m292.734375 400.816406h.273437c5.523438 0 10-4.476562 10-10 0-5.519531-4.476562-10-10-10h-.273437c-5.523437 0-10 4.480469-10 10 0 5.523438 4.476563 10 10 10zm0 0"/><path d="m212.8125 287.367188c60.652344 0 110-49.347657 110-110 0-60.652344-49.347656-110-110-110-60.65625 0-110 49.347656-110 110 0 60.652343 49.34375 110 110 110zm0-200c49.625 0 90 40.375 90 90s-40.375 90-90 90c-49.628906 0-90-40.375-90-90s40.371094-90 90-90zm0 0"/><path d="m177.8125 202.367188c-5.507812 0-10 4.492187-10 10 0 5.507812 4.492188 10 10 10s10-4.492188 10-10c0-5.507813-4.492188-10-10-10zm0 0"/><path d="m177.8125 142.367188c38.597656 0 70 31.402343 70 70 0 5.523437 4.476562 10 10 10s10-4.476563 10-10c0-49.625-40.375-90-90-90-5.523438 0-10 4.476562-10 10 0 5.523437 4.476562 10 10 10zm0 0"/><path d="m177.8125 182.367188c16.539062 0 30 13.457031 30 30 0 5.523437 4.476562 10 10 10s10-4.476563 10-10c0-27.570313-22.429688-50-50-50-5.523438 0-10 4.476562-10 10 0 5.523437 4.476562 10 10 10zm0 0"/></g><g transform="matrix(0.09765619784593582 0 0 0.09765619784593582 237.5 150)" id="L1_72"><g><path d="m407.578125 66.820312 37.601563 37.605469 54.234374-54.234375c3.445313-3.445312 3.449219-9.089844 0-12.535156l-25.070312-25.070312c-3.449219-3.445313-9.085938-3.445313-12.535156 0l-44.820313 44.820312zm0 0" fill="#00c9af"/><path d="m445.179688 104.425781-37.601563-37.605469-85.335937 85.332032-22.089844 22.089844 37.605468 37.605468 43.277344-43.28125zm0 0" fill="#b2f6ff"/><path d="m337.757812 211.847656-37.605468-37.605468-14.660156 52.265624zm0 0" fill="#e7d7b7"/><path d="m337.757812 211.847656-52.265624 14.660156 14.660156-52.265624 22.089844-22.089844c-51.835938-7.769532-89.328126 6.363281-112.246094 29.347656l.003906 184.867188v1.300781c31.285156-52.671875 128.210938-44.425781 199.996094-4.140625v-182.027344c-9.980469-4.949219-19.628906-9.238281-28.960938-12.933594zm0 0" fill="#f9f9f9"/><path d="m210 366.367188v-184.863282c-34.289062-34.394531-101.21875-48.984375-200 0v182.023438c71.785156-40.285156 168.710938-48.527344 200 4.140625zm0 0" fill="#f9f9f9"/><path d="m210 367.667969c-31.289062-52.671875-128.214844-44.425781-200-4.140625v40c71.785156-40.285156 168.710938-48.527344 200 4.140625zm0 0" fill="#b3b3b3"/><path d="m210 407.667969c-31.289062-52.667969-128.214844-44.425781-200-4.140625v6.472656h200zm0 0" fill="#b3b3b3"/><path d="m409.996094 363.527344c-71.785156-40.285156-168.710938-48.53125-199.996094 4.140625v40c31.285156-52.667969 128.210938-44.425781 199.996094-4.140625zm0 0" fill="#b3b3b3"/><path d="m409.996094 403.527344c-71.785156-40.285156-168.710938-48.527344-200 4.140625v2.332031h200zm0 0" fill="#b3b3b3"/></g><path d="m66.964844 168.945312c.898437 0 1.808594-.121093 2.710937-.375l.273438-.078124c5.316406-1.5 8.40625-7.023438 6.90625-12.339844-1.503907-5.316406-7.03125-8.40625-12.34375-6.90625l-.246094.070312c-5.316406 1.492188-8.414063 7.015625-6.921875 12.332032 1.238281 4.414062 5.253906 7.296874 9.621094 7.296874zm0 0"/><path d="m331.644531 400h-.269531c-5.523438 0-10 4.476562-10 10 0 5.519531 4.476562 10 10 10h.269531c5.523438 0 10-4.480469 10-10 0-5.523438-4.476562-10-10-10zm0 0"/><path d="m506.484375 30.582031-25.070313-25.066406c-7.355468-7.355469-19.320312-7.351563-26.675781 0l-136.058593 136.058594c-43.664063-5.472657-81.710938 3.816406-108.679688 26.394531-26.058594-21.78125-62.761719-31.304688-104.539062-26.886719-5.492188.578125-9.472657 5.5-8.890626 10.992188.578126 5.492187 5.492188 9.480469 10.992188 8.894531 37.871094-4.003906 70.496094 4.804688 92.433594 24.816406v155.789063c-41.589844-32.273438-117.589844-24.609375-179.996094 5.476562v-159.292969c7.890625-3.761718 15.707031-7.171874 23.316406-10.167968 5.136719-2.023438 7.664063-7.828125 5.640625-12.964844-2.023437-5.140625-7.828125-7.667969-12.96875-5.644531-9.914062 3.902343-20.152343 8.464843-30.429687 13.5625-3.40625 1.6875-5.558594 5.160156-5.558594 8.957031v228.5c0 5.519531 4.476562 10 10 10h281.410156c5.519532 0 10-4.480469 10-10 0-5.523438-4.480468-10-10-10h-62.167968c14.59375-12.894531 37.183593-19.632812 65.429687-19.261719 27.167969.375 57.214844 7.246094 85.464844 19.261719h-19.761719c-5.523438 0-10 4.476562-10 10 0 5.519531 4.476562 10 10 10h49.621094c5.523437 0 10-4.480469 10-10v-228.5c0-3.796875-2.152344-7.269531-5.554688-8.957031-5.28125-2.617188-10.566406-5.089844-15.816406-7.421875l53.621094-53.621094c.003906 0 .003906-.003906.003906-.003906.003906-.003906.003906-.003906.007812-.003906l54.230469-54.230469c7.351563-7.355469 7.351563-19.324219-.003906-26.679688zm-132.546875 130.941407c-.019531.019531-.035156.035156-.054688.054687l-36.125 36.125-23.464843-23.464844 93.28125-93.277343 23.464843 23.464843zm-68.773438 31.871093 13.4375 13.441407-18.675781 5.238281zm-179.839843 147.34375c35.167969-.488281 61.5625 10.082031 74.675781 29.816407v11.003906c-41.597656-32.261719-117.597656-24.585938-180 5.496094v-17.585938c33.601562-17.839844 71.671875-28.265625 105.324219-28.730469zm65.433593 59.261719h-150.894531c28.25-12.015625 58.292969-18.886719 85.460938-19.261719 28.253906-.375 50.84375 6.367188 65.433593 19.261719zm29.242188-18.441406v-11c13.109375-19.738282 39.511719-30.316406 74.671875-29.820313 33.652344.464844 71.722656 10.890625 105.324219 28.730469v17.585938c-62.398438-30.082032-138.402344-37.761719-179.996094-5.496094zm179.996094-193.800782v159.292969c-62.40625-30.085937-138.40625-37.75-180-5.476562v-155.789063c19.589844-17.886718 47.433594-26.730468 80.121094-25.652344l-7.03125 7.03125c0 .003907-.003907.003907-.003907.007813-.285156.28125-.542969.582031-.785156.890625-.0625.078125-.117187.15625-.171875.234375-.183594.25-.355469.503906-.515625.761719-.050781.085937-.101563.167968-.148437.253906-.171876.296875-.324219.601562-.460938.914062-.019531.046876-.042969.089844-.0625.140626-.15625.371093-.289062.75-.398438 1.132812-.003906.011719-.011718.023438-.015624.039062l-14.660157 52.269532c-.976562 3.476562 0 7.214844 2.558594 9.769531 1.898437 1.902344 4.453125 2.929687 7.070313 2.929687.898437 0 1.808593-.121093 2.699218-.371093l52.269532-14.664063c.011718-.003906.023437-.007812.035156-.011718.386718-.109376.761718-.242188 1.132812-.398438.050782-.023438.101563-.046875.152344-.070312.304688-.132813.605469-.285157.898438-.453126.089843-.050781.175781-.101562.265624-.152343.253907-.15625.503907-.328125.75-.507813.078126-.058594.164063-.117187.242188-.179687.308594-.242188.609375-.5.890625-.78125 0-.003907.003906-.003907.003906-.003907l38.578125-38.578124c5.480469 2.292968 11.023438 4.769531 16.585938 7.421874zm45.183594-97.472656-23.460938-23.464844 46.359375-46.359374 23.464844 23.464843zm0 0"/><path d="m102.226562 188.355469c-20.140624 2.511719-40.675781 7.742187-61.035156 15.550781-5.15625 1.980469-7.734375 7.761719-5.753906 12.917969 1.523438 3.980469 5.316406 6.421875 9.335938 6.421875 1.191406 0 2.402343-.214844 3.582031-.664063 18.582031-7.128906 38.066406-12.101562 56.34375-14.378906 5.480469-.683594 9.367187-5.679687 8.683593-11.160156-.679687-5.480469-5.675781-9.371094-11.15625-8.6875zm0 0"/><path d="m171.539062 233.007812c-35.273437-11.316406-82.78125-7.34375-130.347656 10.898438-5.15625 1.980469-7.734375 7.761719-5.753906 12.917969 1.523438 3.980469 5.316406 6.421875 9.335938 6.421875 1.191406 0 2.402343-.214844 3.582031-.664063 42.75-16.398437 86.515625-20.335937 117.074219-10.53125 5.257812 1.6875 10.890624-1.207031 12.578124-6.46875 1.683594-5.257812-1.210937-10.886719-6.46875-12.574219zm0 0"/><path d="m171.539062 273.007812c-35.269531-11.316406-82.78125-7.34375-130.347656 10.902344-5.15625 1.976563-7.734375 7.761719-5.753906 12.917969 1.523438 3.976563 5.316406 6.421875 9.335938 6.421875 1.191406 0 2.402343-.214844 3.582031-.667969 42.75-16.398437 86.515625-20.335937 117.074219-10.53125 5.257812 1.6875 10.886718-1.207031 12.578124-6.464843 1.683594-5.257813-1.210937-10.890626-6.46875-12.578126zm0 0"/></g></defs><g fi:class="KUsePattern"><pattern id="pattern_L1_69" width="350" height="350" patternUnits="userSpaceOnUse"><use xlink:href="#L1_69" x="-350" y="-350"/><use xlink:href="#L1_69" x="0" y="-350"/><use xlink:href="#L1_69" x="350" y="-350"/><use xlink:href="#L1_69" x="-350" y="0"/><use xlink:href="#L1_69" x="0" y="0"/><use xlink:href="#L1_69" x="350" y="0"/><use xlink:href="#L1_69" x="-350" y="350"/><use xlink:href="#L1_69" x="0" y="350"/><use xlink:href="#L1_69" x="350" y="350"/></pattern><rect x="0" y="0" width="100%" height="100%" fill="url(#pattern_L1_69)"/></g><g fi:class="KUsePattern"><pattern id="pattern_L1_70" width="350" height="350" patternUnits="userSpaceOnUse"><use xlink:href="#L1_70" x="-350" y="-350"/><use xlink:href="#L1_70" x="0" y="-350"/><use xlink:href="#L1_70" x="350" y="-350"/><use xlink:href="#L1_70" x="-350" y="0"/><use xlink:href="#L1_70" x="0" y="0"/><use xlink:href="#L1_70" x="350" y="0"/><use xlink:href="#L1_70" x="-350" y="350"/><use xlink:href="#L1_70" x="0" y="350"/><use xlink:href="#L1_70" x="350" y="350"/></pattern><rect x="0" y="0" width="100%" height="100%" fill="url(#pattern_L1_70)"/></g><g fi:class="KUsePattern"><pattern id="pattern_L1_71" width="350" height="350" patternUnits="userSpaceOnUse"><use xlink:href="#L1_71" x="-350" y="-350"/><use xlink:href="#L1_71" x="0" y="-350"/><use xlink:href="#L1_71" x="350" y="-350"/><use xlink:href="#L1_71" x="-350" y="0"/><use xlink:href="#L1_71" x="0" y="0"/><use xlink:href="#L1_71" x="350" y="0"/><use xlink:href="#L1_71" x="-350" y="350"/><use xlink:href="#L1_71" x="0" y="350"/><use xlink:href="#L1_71" x="350" y="350"/></pattern><rect x="0" y="0" width="100%" height="100%" fill="url(#pattern_L1_71)"/></g><g fi:class="KUsePattern"><pattern id="pattern_L1_72" width="350" height="350" patternUnits="userSpaceOnUse"><use xlink:href="#L1_72" x="-350" y="-350"/><use xlink:href="#L1_72" x="0" y="-350"/><use xlink:href="#L1_72" x="350" y="-350"/><use xlink:href="#L1_72" x="-350" y="0"/><use xlink:href="#L1_72" x="0" y="0"/><use xlink:href="#L1_72" x="350" y="0"/><use xlink:href="#L1_72" x="-350" y="350"/><use xlink:href="#L1_72" x="0" y="350"/><use xlink:href="#L1_72" x="350" y="350"/></pattern><rect x="0" y="0" width="100%" height="100%" fill="url(#pattern_L1_72)"/></g></svg>